<?xml version="1.0" encoding="UTF-8"?>
<svg width="791px" height="209px" viewBox="0 0 791 209" version="1.1" xmlns="http://www.w3.org/2000/svg" xmlns:xlink="http://www.w3.org/1999/xlink">
    <!-- Generator: Sketch 50 (54983) - http://www.bohemiancoding.com/sketch -->
    <title>logo (1)</title>
    <desc>Created with Sketch.</desc>
    <defs>
        <linearGradient x1="43.20962%" y1="7.65176%" x2="9.64778%" y2="42.01268%" id="linearGradient-1">
            <stop stop-color="#F39000" offset="0%"></stop>
            <stop stop-color="#FDC300" offset="100%"></stop>
        </linearGradient>
        <linearGradient x1="89.5163748%" y1="9.17127812%" x2="10.0988642%" y2="91.4137865%" id="linearGradient-2">
            <stop stop-color="#E50176" offset="0%"></stop>
            <stop stop-color="#E30D14" offset="52.6734104%"></stop>
            <stop stop-color="#F28D01" offset="100%"></stop>
        </linearGradient>
    </defs>
    <g id="Page-1" stroke="none" stroke-width="1" fill="none" fill-rule="evenodd">
        <g id="logo-(1)" fill-rule="nonzero">
            <g id="SVGID_1_-link" fill="url(#linearGradient-2)">
                <path d="M58,164 C58,154.6 65.7,147.1 75.2,147.1 C84.7,147.1 92.4,154.7 92.4,164 C92.4,173.3 84.7,180.9 75.2,180.9 C65.7,180.9 58,173.3 58,164 Z M63.7,73.6 C63.7,67.4 68.8,62.3 75.1,62.3 C78.6,62.3 81.7,63.8 83.8,66.3 L126.5,108.5 L126.5,70.8 L149.4,70.8 L149.4,135.7 C149.4,142 144.3,147 138,147 C134.5,147 131.5,145.5 129.4,143.1 L86.6,100.9 L86.6,138.5 L63.7,138.5 L63.7,73.6 Z M120.9,45.4 C120.9,36.1 128.6,28.5 138.1,28.5 C147.6,28.5 155.3,36.1 155.3,45.4 C155.3,54.8 147.6,62.3 138.1,62.3 C128.6,62.3 120.9,54.7 120.9,45.4 Z M5.6,39.1 C2.5,60.5 0.9,82.4 0.9,104.6 C0.9,127 2.5,149 5.6,170.5 C8.2,187.9 22.1,201.7 39.7,204.3 C61.5,207.4 83.8,209 106.5,209 C129.3,209 151.8,207.4 173.7,204.2 C190.9,201.5 204.6,188 207.4,171 C210.6,149.3 212.2,127.1 212.2,104.5 C212.2,82.5 210.6,60.9 207.6,39.8 C207.6,39.5 207.5,39.1 207.5,38.8 C204.9,21.3 191,7.4 173.3,4.8 C151.5,1.7 129.2,0.1 106.5,0.1 C84,0.2 61.8,1.8 40.1,4.9 C22.2,7.5 8.1,21.5 5.6,39.1 Z" id="SVGID_1_"></path>
            </g>
            <path d="M790.4,115.9 C790.4,114 789.3,112.1 786.5,112.1 L754.6,112.1 C752.6,112.1 750.7,113.9 750.7,115.9 L750.7,177.8 C750.7,179.8 752.5,181.6 754.6,181.6 L786.5,181.6 C789.2,181.6 790.4,179.7 790.4,177.8 C790.4,175.9 789.3,174 786.5,174 L758.5,174 L758.5,149.6 L778,149.6 C780.5,149.6 781.9,147.7 781.9,145.8 C781.9,143.9 780.6,142 778,142 L758.5,142 L758.5,119.9 L786.5,119.9 C789.2,119.7 790.4,117.8 790.4,115.9 Z M737.5,165.9 L737.5,165.2 C737.5,162.8 735.7,161.5 733.7,161.5 C732.1,161.5 730.3,162.5 729.8,164.8 C728.7,170.3 724.1,174.6 718.3,174.6 L717.3,174.6 C710.9,174.6 705.7,169.5 705.7,163.1 L705.7,130.5 C705.7,124.4 710.9,119.1 717.3,119.1 L718.3,119.1 C724.1,119.1 728.7,123.3 729.8,128.9 C730.3,131.2 731.9,132.2 733.7,132.2 C735.6,132.2 737.5,130.9 737.5,128.5 L737.5,127.9 C736.2,118.6 728.1,111.5 718.4,111.5 L717.4,111.5 C706.7,111.5 698,120 698,130.5 L698,163.1 C698,173.8 706.7,182.1 717.4,182.1 L718.4,182.1 C727.9,182.1 736.2,175.1 737.5,165.9 Z M683.4,177.7 L683.4,115.3 C683.4,112.8 681.6,111.5 679.6,111.5 C677.7,111.5 675.6,112.8 675.6,115.3 L675.6,164.5 L653.5,114.7 C652.3,112 650.6,111.5 648.3,111.5 C646,111.5 643.7,112.7 643.7,115.4 L643.7,178.4 C643.7,180.9 645.6,182.1 647.6,182.1 C649.5,182.1 651.5,180.9 651.5,178.4 L651.5,129.2 L673.7,178.8 C675.2,182.1 677.5,182.1 679,182.1 C681.4,182.1 683.4,181 683.4,177.7 Z M599.7,173.9 L599.7,149.5 L619.2,149.5 C621.7,149.5 623.1,147.6 623.1,145.7 C623.1,143.8 621.8,141.9 619.2,141.9 L599.7,141.9 L599.7,119.8 L627.7,119.8 C630.5,119.8 631.6,117.9 631.6,116 C631.6,114.1 630.5,112.2 627.7,112.2 L595.8,112.2 C593.8,112.2 591.9,114 591.9,116 L591.9,177.9 C591.9,179.9 593.7,181.7 595.8,181.7 L627.7,181.7 C630.5,181.7 631.6,179.8 631.6,177.9 C631.6,176 630.5,174.1 627.7,174.1 L599.7,174.1 L599.7,173.9 Z M592.5,94.7 C592.5,92.8 591.2,90.9 588.6,90.9 L564.7,90.9 L564.7,32.3 C564.7,29.8 562.8,28.5 560.8,28.5 C558.9,28.5 556.9,29.8 556.9,32.3 L556.9,94.8 C556.9,96.8 558.7,98.6 560.8,98.6 L588.6,98.6 C591.1,98.6 592.5,96.7 592.5,94.7 Z M555.8,111.5 L554.8,111.5 C544.1,111.5 535.5,120 535.5,130.6 L535.5,163.1 C535.5,173.8 544.2,182.1 554.8,182.1 L555.8,182.1 C566.5,182.1 575.2,173.7 575.2,163.1 L575.2,147.5 C575.2,145.5 573.4,143.7 571.3,143.7 L556.7,143.7 C554.1,143.7 552.8,145.6 552.8,147.5 C552.8,149.4 554.1,151.3 556.7,151.3 L567.4,151.3 L567.4,163.1 C567.4,169.4 562.2,174.6 555.8,174.6 L554.8,174.6 C548.4,174.6 543.2,169.5 543.2,163.1 L543.2,130.5 C543.2,124.4 548.4,119.1 554.8,119.1 L555.8,119.1 C562.4,119.1 566.3,123.3 567.4,129 C567.8,131.3 569.5,132.2 571.3,132.2 C573.2,132.2 575.2,130.9 575.2,128.5 L575.2,127.9 C573.9,118.4 565.7,111.5 555.8,111.5 Z M544.7,95.5 C544.7,95.2 544.6,94.8 544.5,94.3 L524.6,31.3 C523.9,29.4 522.1,28.5 519.9,28.5 C517.9,28.5 516,29.4 515.3,31.3 L495.4,94.3 C495.3,94.8 495.2,95.2 495.2,95.5 C495.2,97.5 496.8,99.1 499.2,99.1 C500.7,99.1 502.1,98.4 502.8,96.5 L520,42.1 L537.1,96.4 C537.8,98.3 539.2,99 540.8,99 C543.1,99.1 544.7,97.5 544.7,95.5 Z M495.1,173.9 L471.2,173.9 L471.2,115.3 C471.2,112.8 469.3,111.5 467.3,111.5 C465.4,111.5 463.4,112.8 463.4,115.3 L463.4,177.8 C463.4,179.8 465.2,181.6 467.3,181.6 L495.1,181.6 C497.6,181.6 499,179.7 499,177.8 C498.9,175.8 497.6,173.9 495.1,173.9 Z M487.2,49.1 L487.2,48.2 C487.2,37.6 478.5,29.1 467.9,29.1 L450.8,29.1 C448.8,29.1 446.9,30.9 446.9,32.9 L446.9,95.4 C446.9,97.9 448.8,99.1 450.8,99.1 C452.7,99.1 454.7,97.9 454.7,95.4 L454.7,68.2 L465,68.2 L478.9,97 C479.7,98.6 481,99.1 482.3,99.1 C484.7,99.1 486.4,97.5 486.4,95.4 C486.4,94.8 486.3,94.2 486,93.7 L473.4,67.6 C481.5,65.2 487.2,57.9 487.2,49.1 Z M479.5,49.1 C479.5,55.4 474.7,60.6 468.3,60.6 L454.6,60.6 L454.6,36.7 L467.8,36.7 C474.2,36.7 479.4,41.8 479.4,48.2 L479.4,49.1 L479.5,49.1 Z M431.6,80.1 L431.6,32.3 C431.6,29.8 429.7,28.5 427.7,28.5 C425.8,28.5 423.8,29.8 423.8,32.3 L423.8,80.1 C423.8,86.4 418.7,91.6 412.3,91.6 L411.3,91.6 C404.9,91.6 399.7,86.5 399.7,80.1 L399.7,32.3 C399.7,29.8 397.8,28.5 395.8,28.5 C393.9,28.5 391.9,29.8 391.9,32.3 L391.9,80.1 C391.9,90.8 400.6,99.1 411.2,99.1 L412.2,99.1 C423,99.1 431.6,90.7 431.6,80.1 Z M381.3,32.9 C381.3,31 380,29.1 377.4,29.1 L347.3,29.1 C344.8,29.1 343.4,31 343.4,32.9 C343.4,34.8 344.7,36.7 347.3,36.7 L358.5,36.7 L358.5,95.3 C358.5,97.8 360.4,99 362.4,99 C364.3,99 366.3,97.8 366.3,95.3 L366.3,36.7 L377.5,36.7 C380,36.7 381.3,34.8 381.3,32.9 Z M343.4,95.5 C343.4,95.2 343.3,94.8 343.2,94.3 L323.3,31.3 C322.6,29.4 320.8,28.5 318.6,28.5 C316.6,28.5 314.7,29.4 314,31.3 L294.1,94.3 C294,94.8 293.9,95.2 293.9,95.5 C293.9,97.5 295.5,99.1 297.9,99.1 C299.4,99.1 300.8,98.4 301.5,96.5 L318.6,42.2 L335.7,96.5 C336.4,98.4 337.8,99.1 339.4,99.1 C341.8,99.1 343.4,97.5 343.4,95.5 Z M281.8,94.7 L281.8,32.3 C281.8,29.8 280,28.5 278,28.5 C276.1,28.5 274,29.8 274,32.3 L274,81.5 L252,31.7 C250.8,29 249.1,28.5 246.8,28.5 C244.5,28.5 242.2,29.7 242.2,32.4 L242.2,95.4 C242.2,97.9 244.1,99.1 246.1,99.1 C248,99.1 250,97.9 250,95.4 L250,46.2 L272.2,95.8 C273.7,99.1 276,99.1 277.5,99.1 C279.8,99.1 281.8,98 281.8,94.7 Z M242.2,115.3 L242.2,178.4 C242.2,180.9 244.1,182.1 246.1,182.1 C248,182.1 250,180.9 250,178.4 L250,115.3 C250,112.8 248.1,111.5 246.1,111.5 C244.1,111.5 242.2,112.8 242.2,115.3 Z M265.9,115.4 L265.9,178.4 C265.9,180.9 267.8,182.1 269.8,182.1 C271.7,182.1 273.7,180.9 273.7,178.4 L273.7,129.2 L295.9,178.8 C297.4,182.1 299.7,182.1 301.2,182.1 C303.5,182.1 305.6,181 305.6,177.7 L305.6,115.3 C305.6,112.8 303.8,111.5 301.8,111.5 C299.9,111.5 297.8,112.8 297.8,115.3 L297.8,164.5 L275.7,114.7 C274.5,112 272.8,111.5 270.5,111.5 C268.2,111.5 265.9,112.7 265.9,115.4 Z M316.2,115.9 C316.2,117.8 317.5,119.7 320.1,119.7 L331.3,119.7 L331.3,178.3 C331.3,180.8 333.2,182 335.2,182 C337.1,182 339.1,180.8 339.1,178.3 L339.1,119.7 L350.3,119.7 C352.8,119.7 354.2,117.8 354.2,115.9 C354.2,114 352.9,112.1 350.3,112.1 L320.2,112.1 C317.6,112.1 316.2,114 316.2,115.9 Z M364.8,115.9 L364.8,177.8 C364.8,179.8 366.6,181.6 368.7,181.6 L400.6,181.6 C403.3,181.6 404.5,179.7 404.5,177.8 C404.5,175.9 403.4,174 400.6,174 L372.6,174 L372.6,149.6 L392,149.6 C394.6,149.6 395.9,147.7 395.9,145.8 C395.9,143.9 394.6,142 392,142 L372.5,142 L372.5,119.9 L400.5,119.9 C403.2,119.9 404.4,118 404.4,116.1 C404.4,114.2 403.3,112.3 400.5,112.3 L368.6,112.3 C366.6,112.1 364.8,113.9 364.8,115.9 Z M416.6,115.3 L416.6,177.8 C416.6,179.8 418.4,181.6 420.5,181.6 L448.3,181.6 C450.8,181.6 452.2,179.7 452.2,177.8 C452.2,175.9 450.9,174 448.3,174 L424.4,174 L424.4,115.4 C424.4,112.9 422.5,111.6 420.5,111.6 C418.6,111.5 416.6,112.8 416.6,115.3 Z M512.2,115.3 L512.2,178.4 C512.2,180.9 514.1,182.1 516.1,182.1 C518,182.1 520,180.9 520,178.4 L520,115.3 C520,112.8 518.1,111.5 516.1,111.5 C514.1,111.5 512.2,112.8 512.2,115.3 Z" id="Shape" fill="#646363"></path>
        </g>
    </g>
</svg>